<?xml version="1.0" encoding="UTF-8" standalone="no"?>
<!-- Created with Inkscape (http://www.inkscape.org/) -->

<svg
   width="81.142754mm"
   height="81.132851mm"
   viewBox="0 0 81.142754 81.132851"
   version="1.1"
   id="svg1"
   xml:space="preserve"
   xmlns="http://www.w3.org/2000/svg"
   xmlns:svg="http://www.w3.org/2000/svg"><defs
     id="defs1" /><g
     id="layer1"
     transform="translate(-64.707946,-103.41109)"
     style="display:none"><g
       id="g5"
       transform="translate(-10.918207,15.597439)"><path
         style="fill:#000024;fill-opacity:1"
         d="m 116.81626,155.35737 c 0.0154,-0.0203 0.0276,-10.049 0.0272,-22.28593 l -8.5e-4,-22.24897 h -1.07366 -1.07367 v 22.25014 c 0,12.23757 0.01,22.26624 0.0221,22.28592 0.0293,0.0475 2.06284,0.0464 2.0989,-0.001 z m -6.68829,-3.55054 c 0,-1.73395 -0.0182,-3.18128 -0.0405,-3.21628 -0.0223,-0.035 -0.11362,-0.0797 -0.203,-0.0994 -0.0894,-0.0196 -0.21145,-0.0549 -0.27124,-0.0783 -0.0598,-0.0234 -0.20655,-0.0719 -0.32613,-0.1078 -0.11959,-0.0359 -0.31527,-0.10333 -0.43485,-0.14993 -0.11959,-0.0466 -0.26635,-0.10333 -0.32614,-0.12606 -0.0948,-0.0361 -0.23671,-0.0908 -0.70662,-0.27248 -0.0598,-0.0231 -0.24325,-0.10337 -0.40767,-0.17833 -0.16443,-0.075 -0.3968,-0.17882 -0.51638,-0.23079 -0.35869,-0.1559 -1.33638,-0.6421 -1.68504,-0.83798 -0.17937,-0.10077 -0.40991,-0.23013 -0.5123,-0.28746 -0.10238,-0.0573 -0.31689,-0.18787 -0.47667,-0.29008 -0.15977,-0.10221 -0.30263,-0.18583 -0.31746,-0.18583 -0.0148,0 -0.1951,-0.1223 -0.40062,-0.27178 -0.20551,-0.14948 -0.40082,-0.27178 -0.43401,-0.27178 -0.0332,0 -0.0603,-0.0188 -0.0603,-0.0418 0,-0.023 -0.21403,-0.19335 -0.47561,-0.37859 -0.26159,-0.18524 -0.53757,-0.39269 -0.61328,-0.461 -0.0757,-0.0683 -0.27139,-0.23328 -0.43485,-0.36661 -0.49411,-0.40304 -0.97663,-0.88576 -0.97663,-0.97704 0,-0.0473 0.52589,-0.6115 1.16865,-1.25374 l 1.16865,-1.16771 v -3.68308 c 0,-2.0257 -0.0183,-3.6813 -0.0408,-3.67912 -0.0224,0.002 -0.11415,0.0508 -0.20383,0.10812 -0.0897,0.0573 -0.19976,0.12104 -0.2446,0.1417 -0.12359,0.0569 -0.5069,0.30776 -0.58857,0.38515 -0.0397,0.0376 -0.12226,0.0952 -0.18346,0.12795 -0.0925,0.0495 -0.45157,0.30349 -0.66841,0.47279 -0.0299,0.0233 -0.18888,0.14338 -0.35331,0.26675 -0.16443,0.12338 -0.36324,0.2813 -0.44182,0.35094 -0.0786,0.0696 -0.26702,0.22446 -0.41877,0.34404 -0.15175,0.11959 -0.74862,0.6944 -1.32638,1.27737 -0.94861,0.95716 -1.38224,1.44515 -1.85967,2.09281 -0.0881,0.11952 -0.1753,0.22954 -0.19376,0.24449 -0.0804,0.0651 -0.86906,1.19828 -0.86906,1.2487 0,0.0307 -0.02,0.0558 -0.0443,0.0558 -0.0244,0 -0.10388,0.10212 -0.17665,0.22692 -0.0728,0.1248 -0.18718,0.31437 -0.25424,0.42126 -0.0671,0.10689 -0.13831,0.23103 -0.15833,0.27588 -0.02,0.0448 -0.0785,0.14268 -0.13,0.21742 -0.0515,0.0747 -0.23256,0.40495 -0.40239,0.7338 -0.16982,0.32886 -0.32959,0.63461 -0.35504,0.67945 -0.0254,0.0448 -0.0882,0.17938 -0.13948,0.29896 -0.0513,0.11958 -0.13892,0.31374 -0.19477,0.43147 -0.0559,0.11772 -0.10156,0.25693 -0.10156,0.30934 0,0.0524 -0.0245,0.11041 -0.0544,0.12888 -0.10277,0.0635 -0.0538,0.19084 0.20383,0.5299 0.14201,0.18689 0.27172,0.35203 0.28825,0.36698 0.0165,0.0149 0.10074,0.12502 0.18714,0.2446 0.0864,0.11958 0.18355,0.24188 0.2159,0.27178 0.0323,0.0299 0.20851,0.23781 0.3915,0.46202 0.35038,0.42934 2.00767,2.12902 2.65418,2.72208 0.32527,0.29838 0.75442,0.66337 1.05994,0.90148 0.0448,0.035 0.21607,0.17049 0.38049,0.30119 0.45282,0.35996 1.78147,1.29342 1.84101,1.29342 0.0288,0 0.0606,0.0196 0.0705,0.0435 0.0255,0.0612 0.8026,0.54443 1.36058,0.84609 0.15852,0.0857 0.31884,0.18046 0.35627,0.21058 0.0374,0.0301 0.2698,0.15775 0.51638,0.28362 0.24658,0.12586 0.49725,0.25487 0.55704,0.28667 0.11096,0.059 0.67438,0.32226 1.23808,0.57845 0.17272,0.0785 0.33325,0.14272 0.35673,0.14272 0.0235,0 0.16946,0.0612 0.32438,0.13589 0.15493,0.0747 0.31442,0.13589 0.35443,0.13589 0.04,0 0.0893,0.0166 0.10957,0.0368 0.0359,0.0359 0.66114,0.26657 0.87816,0.32398 0.0598,0.0158 0.15763,0.0475 0.21743,0.0704 0.31433,0.12054 0.50416,0.1818 0.63934,0.20632 0.0826,0.015 0.16352,0.0489 0.17987,0.0753 0.0164,0.0264 0.10777,0.0489 0.20317,0.05 0.0954,0.001 0.2346,0.0369 0.30934,0.0796 0.0747,0.0427 0.20171,0.0786 0.28216,0.0796 0.0804,0.001 0.15979,0.0238 0.17631,0.0505 0.0165,0.0267 0.12193,0.0617 0.23422,0.0777 0.33485,0.0477 0.94146,0.18522 0.97804,0.2218 0.0187,0.0187 0.0537,0.003 0.0777,-0.0347 0.024,-0.0378 0.0436,-1.48745 0.0436,-3.22141 z m 11.51226,3.23638 c 0.0519,-0.0287 0.21669,-0.0792 0.36617,-0.11229 0.14948,-0.0331 0.36962,-0.0816 0.4892,-0.10794 0.11959,-0.0263 0.31527,-0.0693 0.43485,-0.0956 0.11958,-0.0263 0.27085,-0.0765 0.33615,-0.11168 0.0653,-0.0351 0.18004,-0.0639 0.25498,-0.0639 0.0749,0 0.14971,-0.0218 0.16614,-0.0484 0.0164,-0.0266 0.10961,-0.0602 0.20704,-0.0747 0.17803,-0.0265 0.47636,-0.12274 0.65204,-0.21036 0.0519,-0.0259 0.13174,-0.0471 0.1774,-0.0471 0.0457,0 0.12548,-0.022 0.17739,-0.0488 0.0519,-0.0268 0.20446,-0.0905 0.33899,-0.14147 0.13453,-0.051 0.28707,-0.11464 0.33898,-0.14147 0.0519,-0.0268 0.1356,-0.0488 0.18597,-0.0488 0.0504,0 0.1302,-0.0316 0.17739,-0.0703 0.0472,-0.0387 0.18366,-0.10189 0.30324,-0.14052 0.11958,-0.0386 0.33973,-0.1262 0.4892,-0.19462 0.14948,-0.0684 0.41854,-0.19081 0.59792,-0.27199 0.17937,-0.0812 0.37465,-0.17366 0.43396,-0.20551 0.0593,-0.0319 0.32836,-0.17282 0.59791,-0.31327 1.00468,-0.52349 1.08861,-0.5684 1.11519,-0.59676 0.0149,-0.016 0.1189,-0.0771 0.23101,-0.13597 0.11211,-0.0588 0.20384,-0.12587 0.20384,-0.14896 0,-0.0231 0.0266,-0.042 0.0591,-0.042 0.0488,0 0.75097,-0.43124 0.94805,-0.58224 0.0307,-0.0236 0.25089,-0.17632 0.4892,-0.33945 0.2383,-0.16313 0.4656,-0.32824 0.50511,-0.3669 0.0395,-0.0387 0.0899,-0.0703 0.11205,-0.0703 0.0221,0 0.0876,-0.0435 0.1456,-0.0968 0.0579,-0.0532 0.20316,-0.16941 0.32268,-0.25819 1.22807,-0.91223 2.70538,-2.28473 3.85972,-3.58585 0.2387,-0.26906 0.44656,-0.50143 0.4619,-0.51638 0.0153,-0.0149 0.1989,-0.24382 0.40792,-0.50861 0.20901,-0.26478 0.48398,-0.61169 0.61104,-0.7709 0.23336,-0.29243 0.28855,-0.50727 0.18465,-0.71881 -0.0503,-0.1024 -0.17715,-0.39402 -0.26568,-0.61077 -0.0887,-0.2171 -0.49823,-1.03518 -0.66668,-1.33172 -0.0849,-0.14947 -0.21979,-0.39916 -0.29972,-0.55485 -0.0799,-0.15569 -0.17965,-0.31156 -0.2216,-0.34638 -0.042,-0.0348 -0.0763,-0.0886 -0.0763,-0.11946 0,-0.0309 -0.0612,-0.13634 -0.13589,-0.23432 -0.0747,-0.098 -0.13589,-0.19277 -0.13589,-0.21062 0,-0.0456 -1.09572,-1.57347 -1.37366,-1.9154 -0.12641,-0.15552 -0.37632,-0.46127 -0.55536,-0.67945 -0.40104,-0.48874 -2.11173,-2.19874 -2.49312,-2.49213 -0.31925,-0.24558 -0.77172,-0.60925 -0.93192,-0.74902 -0.15059,-0.13138 -1.17748,-0.852 -1.27736,-0.89637 -0.0943,-0.0419 -0.28639,-0.15999 -0.32614,-0.20051 -0.0149,-0.0152 -0.1189,-0.0758 -0.23101,-0.13466 -0.11211,-0.0588 -0.20383,-0.12756 -0.20383,-0.15274 0,-0.0252 -0.055,-0.038 -0.1223,-0.0284 -0.0673,0.01 -0.11619,0.0357 -0.10872,0.0581 0.007,0.0224 0.0136,1.65292 0.0136,3.62332 v 3.58254 l 1.22268,1.21436 c 0.67247,0.66791 1.22283,1.24782 1.22301,1.28871 5.2e-4,0.11815 -0.88477,0.91723 -1.60317,1.44706 -0.11958,0.0882 -0.26484,0.20389 -0.3228,0.25711 -0.0579,0.0532 -0.12347,0.0968 -0.14559,0.0968 -0.0221,0 -0.0729,0.0327 -0.11291,0.0727 -0.0682,0.0682 -0.18798,0.15204 -0.72324,0.5063 -0.11959,0.0791 -0.22558,0.1647 -0.23554,0.19013 -0.01,0.0254 -0.0443,0.0462 -0.0764,0.0462 -0.032,0 -0.13845,0.0611 -0.23644,0.13589 -0.098,0.0747 -0.1932,0.13589 -0.21158,0.13589 -0.0184,0 -0.16066,0.081 -0.31617,0.17996 -0.15552,0.099 -0.31945,0.19703 -0.36429,0.21789 -0.0448,0.0209 -0.16715,0.0905 -0.27178,0.15466 -0.25441,0.15609 -1.98831,1.02381 -2.04581,1.02381 -0.0249,0 -0.18022,0.0643 -0.34507,0.14292 -0.16486,0.0786 -0.34866,0.16256 -0.40845,0.18657 -0.3171,0.12732 -0.55379,0.2286 -0.63795,0.27299 -0.0519,0.0274 -0.12861,0.0498 -0.17044,0.0498 -0.0418,0 -0.14612,0.0365 -0.23175,0.0812 -0.0856,0.0447 -0.19705,0.0814 -0.24761,0.0815 -0.0506,1.9e-4 -0.10703,0.0248 -0.12551,0.0547 -0.0185,0.0299 -0.0892,0.0544 -0.15721,0.0544 -0.068,0 -0.14193,0.0183 -0.16431,0.0408 -0.0224,0.0224 -0.13041,0.066 -0.24007,0.0969 l -0.19939,0.0561 -0.0141,3.20526 c -0.008,1.7629 -0.002,3.23584 0.0119,3.27321 0.0312,0.0816 0.0564,0.0839 0.17961,0.0158 z M 92.13714,142.04994 c 0.1838,-0.39287 0.45609,-0.88996 0.53061,-0.9687 0.0374,-0.0395 0.068,-0.0941 0.068,-0.12124 0,-0.0272 0.0856,-0.18325 0.19025,-0.34682 0.10463,-0.16357 0.19024,-0.32304 0.19024,-0.35437 0,-0.0313 0.0207,-0.057 0.0461,-0.057 0.0254,0 0.0902,-0.0978 0.14415,-0.21742 0.0539,-0.11958 0.11879,-0.21742 0.14414,-0.21742 0.0254,0 0.0461,-0.0283 0.0461,-0.0628 0,-0.0345 0.0611,-0.14299 0.13589,-0.24097 0.0747,-0.098 0.13589,-0.19309 0.13589,-0.21134 0,-0.0182 0.0611,-0.0991 0.13589,-0.17973 0.0747,-0.0806 0.13589,-0.16688 0.13589,-0.19172 0,-0.0249 0.11619,-0.20308 0.25819,-0.39607 0.14201,-0.19299 0.31479,-0.42974 0.38396,-0.52612 0.0692,-0.0964 0.17924,-0.23672 0.2446,-0.31187 0.0654,-0.0752 0.19105,-0.23415 0.2793,-0.35331 0.0883,-0.11917 0.26517,-0.33897 0.39315,-0.48845 0.12797,-0.14948 0.30408,-0.35589 0.39136,-0.45868 l 0.15869,-0.18691 -0.1224,-0.24794 c -0.0673,-0.13637 -0.16548,-0.34579 -0.21813,-0.46537 -0.0527,-0.11958 -0.11749,-0.2599 -0.14407,-0.31181 -0.0266,-0.0519 -0.0483,-0.13174 -0.0483,-0.17739 0,-0.0457 -0.0233,-0.12549 -0.0517,-0.1774 -0.14055,-0.25648 -0.43492,-1.04451 -0.47714,-1.27729 -0.015,-0.0826 -0.0489,-0.16352 -0.0753,-0.17986 -0.0264,-0.0164 -0.0481,-0.091 -0.0481,-0.16598 0,-0.0749 -0.0287,-0.18968 -0.0639,-0.25498 -0.0351,-0.0653 -0.0852,-0.21657 -0.1112,-0.33615 -0.026,-0.11959 -0.0698,-0.30304 -0.0973,-0.40767 -0.17346,-0.66061 -0.314,-1.36329 -0.37764,-1.88809 -0.0262,-0.21631 -0.0721,-0.47314 -0.10184,-0.57073 -0.0936,-0.30681 -0.13898,-1.26292 -0.13984,-2.9496 -9.2e-4,-1.78779 0.11158,-3.248 0.29763,-3.86313 0.0278,-0.0918 0.0505,-0.22935 0.0505,-0.30566 0,-0.0763 0.0517,-0.3314 0.11477,-0.56688 0.0631,-0.23548 0.12686,-0.52002 0.14163,-0.63231 0.0148,-0.1123 0.0487,-0.2177 0.0755,-0.23423 0.0267,-0.0165 0.0485,-0.0836 0.0483,-0.14913 -2.7e-4,-0.12102 0.13721,-0.58513 0.22426,-0.75704 0.0263,-0.0519 0.0486,-0.14975 0.0495,-0.21742 9.5e-4,-0.0677 0.0376,-0.17052 0.0815,-0.22855 0.0439,-0.058 0.0798,-0.16055 0.0798,-0.22781 0,-0.0673 0.0245,-0.13741 0.0544,-0.15589 0.0299,-0.0185 0.0544,-0.0814 0.0544,-0.13983 0,-0.0584 0.0233,-0.14872 0.0517,-0.20063 0.0284,-0.0519 0.0921,-0.19222 0.14143,-0.31181 0.30057,-0.72848 0.31662,-0.7641 0.68572,-1.52155 0.30707,-0.63016 0.54664,-1.06873 0.88769,-1.62503 0.0598,-0.0975 0.16825,-0.27943 0.24102,-0.40424 0.0728,-0.1248 0.15227,-0.22691 0.17666,-0.22691 0.0244,0 0.0443,-0.0244 0.0443,-0.0543 0,-0.0537 0.79472,-1.19789 0.86841,-1.25028 0.021,-0.0149 0.10941,-0.12622 0.19641,-0.24727 0.57036,-0.7936 2.06671,-2.30422 3.164,-3.19416 0.14055,-0.11398 0.29382,-0.23828 0.3406,-0.27621 0.27116,-0.21986 0.74491,-0.56513 0.91232,-0.66489 0.10669,-0.0636 0.20314,-0.14307 0.21433,-0.17666 0.0112,-0.0336 0.0466,-0.0611 0.0786,-0.0611 0.0321,0 0.13398,-0.057 0.22649,-0.12656 0.0925,-0.0696 0.29659,-0.19802 0.45351,-0.28536 0.15692,-0.0874 0.28534,-0.17716 0.28537,-0.19958 3e-5,-0.0224 0.0257,-0.0408 0.057,-0.0408 0.0313,0 0.18421,-0.0801 0.33972,-0.17802 0.2525,-0.15896 1.81116,-0.94326 2.15804,-1.08589 0.0747,-0.0307 0.20927,-0.0866 0.29896,-0.12406 0.35545,-0.14864 0.44495,-0.18343 0.70662,-0.27465 0.14948,-0.0521 0.29502,-0.11515 0.32342,-0.14011 0.0284,-0.025 0.096,-0.0454 0.15022,-0.0454 0.0542,0 0.14105,-0.0212 0.19296,-0.0471 0.18682,-0.0932 0.69485,-0.25416 0.99126,-0.31412 0.0747,-0.0151 0.18481,-0.0497 0.2446,-0.0768 0.18806,-0.0853 0.74203,-0.20877 1.44043,-0.32113 0.19432,-0.0313 0.39,-0.0729 0.43485,-0.0925 0.0846,-0.037 0.4587,-0.09 1.25018,-0.17677 0.95616,-0.10489 1.11535,-0.13098 1.15423,-0.18918 0.0528,-0.079 0.0536,-6.270128 8.4e-4,-6.300898 -0.04,-0.0234 -0.95176,0.0374 -1.86169,0.12401 -0.65289,0.0622 -1.30456,0.15883 -1.48931,0.22091 -0.0867,0.0291 -0.22697,0.0529 -0.31177,0.0529 -0.16153,0 -0.48626,0.0662 -0.9439,0.19235 -0.14948,0.0412 -0.34516,0.0871 -0.43484,0.10193 -0.43142,0.0714 -1.09279,0.23733 -1.23586,0.310028 -0.0519,0.0264 -0.13456,0.048 -0.18366,0.048 -0.0873,0 -0.67509,0.18128 -1.2711,0.39204 -0.16443,0.0581 -0.34788,0.11807 -0.40767,0.13316 -0.0598,0.0151 -0.16986,0.0533 -0.2446,0.0849 -0.45311,0.19152 -0.52597,0.22085 -1.1143,0.44852 -0.51496,0.19928 -1.71883,0.77109 -2.3373,1.11016 -0.49295,0.27025 -0.92159,0.5111 -1.08712,0.61083 -0.0897,0.054 -0.23645,0.13903 -0.32614,0.18888 -0.0897,0.0499 -0.17529,0.10557 -0.19024,0.12382 -0.0149,0.0182 -0.11279,0.0802 -0.21742,0.13764 -0.19653,0.1079 -1.7426,1.18688 -1.86222,1.29961 -0.0693,0.0653 -0.58697,0.46576 -0.85901,0.6645 -0.0841,0.0615 -0.30735,0.24779 -0.49603,0.41406 -0.18868,0.16626 -0.42867,0.37173 -0.5333,0.45659 -0.29886,0.24239 -1.62492,1.58125 -2.04159,2.0613 -0.20749,0.23905 -0.42255,0.48365 -0.47791,0.54356 -0.0554,0.0599 -0.16396,0.19455 -0.24131,0.29918 -0.0773,0.10464 -0.21714,0.27586 -0.31064,0.38049 -0.0935,0.10464 -0.20505,0.24264 -0.24789,0.30667 -0.0429,0.064 -0.29193,0.41056 -0.55352,0.77005 -0.26159,0.3595 -0.47562,0.66893 -0.47562,0.68762 0,0.0187 -0.0253,0.0635 -0.0562,0.0996 -0.0938,0.10946 -0.59602,0.90543 -0.59602,0.94459 0,0.0201 -0.0343,0.0752 -0.0761,0.12236 -0.0419,0.0472 -0.13705,0.19589 -0.2115,0.33042 -0.0744,0.13453 -0.21111,0.37913 -0.30368,0.54356 -0.0926,0.16442 -0.32993,0.62917 -0.52748,1.03276 -0.33153,0.67732 -0.39025,0.8038 -0.47944,1.03276 -0.0175,0.0448 -0.0535,0.11823 -0.0802,0.16307 -0.0266,0.0448 -0.0791,0.15491 -0.11668,0.2446 -0.17053,0.40729 -0.20881,0.49941 -0.27107,0.65227 -0.0365,0.0897 -0.088,0.20554 -0.11444,0.25746 -0.0264,0.0519 -0.0488,0.13752 -0.0497,0.19024 -9.5e-4,0.0527 -0.0376,0.14334 -0.0815,0.20137 -0.0439,0.058 -0.0798,0.16055 -0.0798,0.22781 0,0.0673 -0.0245,0.13741 -0.0544,0.15588 -0.0299,0.0185 -0.0544,0.0783 -0.0544,0.13289 0,0.0546 -0.0365,0.16935 -0.0812,0.25498 -0.0447,0.0856 -0.0814,0.20929 -0.0815,0.27479 -1.8e-4,0.0655 -0.0248,0.13421 -0.0547,0.15268 -0.0299,0.0185 -0.0544,0.0936 -0.0544,0.16702 0,0.0734 -0.021,0.17589 -0.0467,0.2278 -0.0834,0.16867 -0.22508,0.64964 -0.22508,0.76433 0,0.0615 -0.0245,0.12692 -0.0544,0.1454 -0.0299,0.0185 -0.0544,0.10631 -0.0544,0.1952 0,0.0889 -0.0367,0.24941 -0.0815,0.35674 -0.0448,0.10732 -0.0815,0.27632 -0.0815,0.37554 0,0.0992 -0.0245,0.19551 -0.0544,0.21399 -0.0299,0.0185 -0.0544,0.1284 -0.0544,0.24427 0,0.11587 -0.0269,0.27954 -0.0598,0.3637 -0.0834,0.21326 -0.19854,0.98249 -0.31515,2.10548 -0.0308,0.29657 -0.0851,0.67571 -0.12069,0.84252 -0.0906,0.42476 -0.0898,4.97007 9.8e-4,5.38558 0.0359,0.16443 0.0893,0.54356 0.11864,0.84252 0.0837,0.85315 0.23658,1.88295 0.30256,2.03834 0.0325,0.0767 0.0825,0.32152 0.15522,0.76099 0.0173,0.10463 0.0657,0.31254 0.10747,0.46202 0.0418,0.14948 0.10395,0.38185 0.13815,0.51638 0.11875,0.46719 0.23001,0.84304 0.27733,0.9369 0.0262,0.0519 0.0476,0.14397 0.0476,0.20458 0,0.0606 0.0212,0.15266 0.0471,0.20457 0.0765,0.15336 0.18076,0.46369 0.21002,0.62502 0.015,0.0826 0.0489,0.16352 0.0753,0.17986 0.0264,0.0163 0.0481,0.088 0.0481,0.1592 0,0.0712 0.0215,0.14277 0.0478,0.15903 0.0263,0.0163 0.0884,0.15835 0.13798,0.31576 0.0496,0.1574 0.11202,0.33511 0.13874,0.3949 0.0559,0.12499 0.20475,0.48042 0.28463,0.67945 0.03,0.0747 0.0853,0.20927 0.12279,0.29896 0.0868,0.20743 0.45985,1.00663 0.52009,1.1143 0.0251,0.0448 0.17311,0.32613 0.32892,0.62509 0.15582,0.29896 0.34081,0.6348 0.4111,0.74631 0.0703,0.11152 0.1278,0.2379 0.1278,0.28084 0,0.043 0.0183,0.0862 0.0408,0.0962 0.0553,0.0246 0.33972,0.46555 0.33972,0.52668 0,0.0269 0.0367,0.0793 0.0815,0.11654 0.0448,0.0372 0.0815,0.11538 0.0815,0.17371 0,0.12424 0.15725,0.11652 0.21674,-0.0106 z m 47.6416,-0.3085 c 0.0886,-0.17413 0.17608,-0.32882 0.1945,-0.34377 0.0184,-0.0149 0.0704,-0.10056 0.11557,-0.19024 0.0451,-0.0897 0.1511,-0.28537 0.23545,-0.43485 0.0844,-0.14948 0.17772,-0.3207 0.20748,-0.38049 0.0297,-0.0598 0.0734,-0.1454 0.097,-0.19025 0.30233,-0.57443 0.86425,-1.7645 0.86425,-1.83036 0,-0.0238 0.0643,-0.17824 0.14292,-0.34309 0.0786,-0.16486 0.16129,-0.34866 0.18373,-0.40845 0.14774,-0.39347 0.23437,-0.61013 0.27684,-0.6923 0.0268,-0.0519 0.0488,-0.13897 0.0488,-0.19345 0,-0.0545 0.0359,-0.14654 0.0798,-0.20457 0.0439,-0.058 0.0806,-0.14865 0.0815,-0.20137 9.5e-4,-0.0527 0.0229,-0.13834 0.0488,-0.19025 0.0932,-0.18682 0.25416,-0.69485 0.31412,-0.99126 0.0151,-0.0747 0.0463,-0.18481 0.0693,-0.2446 0.11953,-0.31102 0.22181,-0.68263 0.22181,-0.80584 0,-0.0764 0.0245,-0.15409 0.0544,-0.17257 0.0299,-0.0185 0.0544,-0.10393 0.0544,-0.18991 0,-0.086 0.028,-0.22518 0.0622,-0.30934 0.0617,-0.15171 0.12214,-0.4447 0.19972,-0.96836 0.0221,-0.14947 0.0594,-0.30244 0.0827,-0.33992 0.0561,-0.0901 0.20129,-1.13469 0.304,-2.18763 0.0335,-0.3438 0.0848,-0.758 0.11381,-0.92044 0.0694,-0.38797 0.0683,-3.79579 -0.001,-4.30738 -0.0298,-0.21891 -0.0812,-0.66708 -0.11417,-0.99593 -0.11758,-1.17284 -0.24484,-2.12247 -0.2954,-2.20428 -0.0196,-0.0317 -0.0586,-0.19689 -0.0867,-0.36711 -0.0281,-0.17021 -0.0722,-0.43476 -0.098,-0.58789 -0.0258,-0.15313 -0.0739,-0.32886 -0.10687,-0.39051 -0.033,-0.0617 -0.06,-0.18563 -0.06,-0.27552 0,-0.0899 -0.0245,-0.17855 -0.0544,-0.19703 -0.0299,-0.0185 -0.0544,-0.11631 -0.0544,-0.21742 0,-0.10111 -0.023,-0.19807 -0.0512,-0.21548 -0.0282,-0.0174 -0.0677,-0.14146 -0.0878,-0.27566 -0.0201,-0.1342 -0.0582,-0.25737 -0.0847,-0.27372 -0.0264,-0.0163 -0.0481,-0.0898 -0.0481,-0.16314 0,-0.0734 -0.0212,-0.17589 -0.0471,-0.2278 -0.0765,-0.15337 -0.18076,-0.46369 -0.21002,-0.62502 -0.015,-0.0826 -0.0489,-0.16352 -0.0753,-0.17987 -0.0264,-0.0163 -0.0481,-0.0847 -0.0481,-0.15201 0,-0.0673 -0.0359,-0.16977 -0.0798,-0.2278 -0.0439,-0.058 -0.0806,-0.14865 -0.0815,-0.20138 -9.5e-4,-0.0527 -0.0233,-0.13833 -0.0497,-0.19024 -0.0264,-0.0519 -0.0776,-0.16777 -0.11374,-0.25746 -0.0361,-0.0897 -0.10015,-0.23231 -0.14223,-0.31695 -0.0421,-0.0846 -0.0765,-0.20082 -0.0765,-0.25819 0,-0.0574 -0.0245,-0.1043 -0.0543,-0.1043 -0.0299,0 -0.0544,-0.039 -0.0544,-0.0867 0,-0.0477 -0.0337,-0.15166 -0.075,-0.23101 -0.0412,-0.0794 -0.16592,-0.33996 -0.27708,-0.57913 -0.11117,-0.23916 -0.22352,-0.47154 -0.24967,-0.51638 -0.0262,-0.0448 -0.087,-0.16714 -0.13515,-0.27178 -0.15973,-0.34688 -0.36767,-0.72724 -0.59075,-1.08063 -0.077,-0.12196 -0.13999,-0.23516 -0.13999,-0.25156 0,-0.0164 -0.14676,-0.26276 -0.32613,-0.54748 -0.17938,-0.28472 -0.32614,-0.529 -0.32614,-0.54284 0,-0.0138 -0.1223,-0.19332 -0.27178,-0.39883 -0.14948,-0.20552 -0.27178,-0.39879 -0.27178,-0.42949 0,-0.0307 -0.0199,-0.064 -0.0442,-0.0739 -0.0243,-0.01 -0.15072,-0.16329 -0.28093,-0.34073 -0.13022,-0.17744 -0.26816,-0.36089 -0.30654,-0.40767 -0.0384,-0.0468 -0.23605,-0.29701 -0.43928,-0.55607 -1.1062,-1.41009 -2.63652,-2.96347 -3.98787,-4.04797 -0.11686,-0.0938 -0.31671,-0.25734 -0.44411,-0.36347 -0.42777,-0.35633 -1.98486,-1.48701 -2.26159,-1.64223 -0.15496,-0.0869 -0.32067,-0.19001 -0.41311,-0.25698 -0.14503,-0.10508 -0.47222,-0.31178 -0.49352,-0.31178 -0.013,0 -0.1526,-0.0804 -0.31014,-0.1786 -0.15753,-0.0982 -0.38426,-0.22665 -0.50384,-0.28537 -0.11959,-0.0587 -0.22966,-0.12042 -0.24461,-0.1371 -0.0277,-0.0309 -1.66572,-0.83293 -1.88886,-0.92487 -0.18865,-0.0777 -0.34713,-0.14349 -0.58433,-0.2425 -0.11958,-0.0499 -0.27857,-0.11498 -0.35331,-0.14459 -0.0747,-0.0296 -0.20514,-0.0883 -0.28978,-0.13035 -0.0846,-0.0421 -0.19938,-0.0765 -0.25498,-0.0765 -0.0556,0 -0.11622,-0.0245 -0.13469,-0.0544 -0.0185,-0.0299 -0.0872,-0.0551 -0.15269,-0.0561 -0.0655,-9.6e-4 -0.16657,-0.0376 -0.2246,-0.0815 -0.058,-0.0439 -0.16055,-0.0798 -0.22781,-0.0798 -0.0673,0 -0.13741,-0.0245 -0.15589,-0.0544 -0.0185,-0.0299 -0.10063,-0.0544 -0.18258,-0.0544 -0.0819,0 -0.17222,-0.0209 -0.20062,-0.0465 -0.0691,-0.0622 -0.58921,-0.22529 -0.71866,-0.22529 -0.0567,0 -0.12052,-0.0175 -0.1419,-0.0389 -0.0634,-0.0634 -0.62716,-0.212668 -1.25859,-0.333298 -0.12068,-0.023 -0.25048,-0.0611 -0.28844,-0.0846 -0.065,-0.0402 -0.28066,-0.0821 -0.98694,-0.19206 -0.16443,-0.0256 -0.33565,-0.0607 -0.38049,-0.0779 -0.3145,-0.12111 -3.23216,-0.39063 -3.32975,-0.30758 -0.0227,0.0193 -0.0349,1.451918 -0.0272,3.183628 l 0.014,3.14856 0.21742,0.0423 c 0.20987,0.0408 0.83846,0.11563 1.63068,0.19417 0.20927,0.0208 0.40878,0.056 0.44334,0.0783 0.0346,0.0223 0.21803,0.066 0.40767,0.097 0.54447,0.0892 0.80992,0.14421 1.16016,0.2405 0.17937,0.0493 0.38728,0.10233 0.46202,0.1178 0.0747,0.0155 0.18481,0.0489 0.24461,0.0743 0.0598,0.0254 0.16986,0.0578 0.2446,0.0719 0.15256,0.0289 0.46778,0.13582 0.61076,0.20713 0.0519,0.0259 0.13875,0.0471 0.19297,0.0471 0.0542,0 0.12181,0.0204 0.15021,0.0454 0.0284,0.025 0.17394,0.088 0.32342,0.14011 0.14948,0.0521 0.3207,0.11565 0.38049,0.1412 0.1627,0.0695 0.52885,0.22204 0.65227,0.2717 0.1948,0.0784 1.57055,0.7561 1.79375,0.88366 0.82774,0.47304 1.09253,0.63088 1.30454,0.77759 0.0897,0.0621 0.19976,0.12943 0.2446,0.14969 0.12269,0.0554 1.60216,1.13426 1.68504,1.22873 0.0149,0.017 0.14947,0.12748 0.29895,0.24543 0.22702,0.17913 0.79447,0.70559 1.298,1.20422 0.49348,0.48868 1.21171,1.27482 1.52851,1.67304 0.20927,0.26305 0.45832,0.57426 0.55345,0.69158 0.16143,0.19907 0.62862,0.86688 0.75109,1.0736 0.0299,0.0505 0.10328,0.16473 0.16307,0.25392 0.17319,0.25835 0.23919,0.36736 0.33654,0.55579 0.0502,0.0972 0.11119,0.17665 0.13555,0.17665 0.0244,0 0.0443,0.0459 0.0443,0.10206 0,0.0561 0.0345,0.13071 0.0767,0.16574 0.0422,0.035 0.28907,0.49664 0.5486,1.02582 0.25953,0.52919 0.49406,1.00463 0.52119,1.05654 0.0271,0.0519 0.0493,0.1193 0.0493,0.14975 0,0.0304 0.0611,0.18211 0.13589,0.33704 0.0747,0.15493 0.13589,0.31413 0.13589,0.35379 0,0.0397 0.0215,0.11457 0.0477,0.16648 0.12622,0.24964 0.22406,0.51576 0.22406,0.6094 0,0.057 0.0245,0.11878 0.0544,0.13726 0.0299,0.0185 0.0552,0.0994 0.0563,0.17986 0.001,0.0804 0.0369,0.20742 0.0796,0.28216 0.0427,0.0747 0.0785,0.20171 0.0796,0.28216 0.001,0.0804 0.0238,0.15979 0.0505,0.17632 0.0267,0.0165 0.0618,0.12192 0.0779,0.23422 0.0161,0.1123 0.0699,0.36317 0.11951,0.55749 0.0953,0.3731 0.15003,0.66249 0.2393,1.26599 0.03,0.20302 0.0707,0.39517 0.0904,0.427 0.12497,0.20222 0.23528,3.01462 0.17451,4.44923 -0.0448,1.05782 -0.11528,1.85301 -0.17239,1.94542 -0.037,0.0598 -0.0961,0.4247 -0.17808,1.09851 -0.0164,0.13453 -0.0518,0.26784 -0.0788,0.29624 -0.027,0.0284 -0.0491,0.10509 -0.0491,0.17041 0,0.0653 -0.0386,0.25 -0.0858,0.41039 -0.0472,0.16039 -0.11118,0.38945 -0.14226,0.50903 -0.0943,0.3628 -0.2172,0.75557 -0.26774,0.85537 -0.0263,0.0519 -0.0478,0.13058 -0.0478,0.17482 0,0.0739 -0.10822,0.35705 -0.22406,0.58617 -0.0262,0.0519 -0.0477,0.13173 -0.0477,0.17739 0,0.0456 -0.0233,0.12548 -0.0517,0.17739 -0.0471,0.086 -0.1406,0.30362 -0.28568,0.66513 -0.0849,0.21159 -0.18243,0.43594 -0.33078,0.76098 l -0.13643,0.29896 0.17505,0.19024 c 0.0963,0.10464 0.2831,0.32478 0.41515,0.48921 0.13205,0.16442 0.25437,0.31118 0.27182,0.32613 0.0174,0.0149 0.13343,0.16605 0.25773,0.33577 0.12431,0.16973 0.252,0.32466 0.28377,0.3443 0.0318,0.0196 0.12404,0.13477 0.20504,0.25586 0.24917,0.37248 0.30696,0.45693 0.40499,0.59175 0.0521,0.0716 0.19882,0.28917 0.32614,0.48349 0.12732,0.19432 0.24983,0.36147 0.27226,0.37143 0.0224,0.01 0.0408,0.0356 0.0408,0.057 0,0.0214 0.20791,0.38691 0.46203,0.81226 0.25411,0.42535 0.46202,0.78259 0.46202,0.79387 0,0.0113 0.0819,0.1654 0.18201,0.3425 0.1001,0.1771 0.19854,0.3879 0.21876,0.46844 0.0532,0.21182 0.18689,0.11703 0.38535,-0.27316 z"
         id="path1" /><rect
         style="fill:#3382b1;fill-opacity:1;stroke:none;stroke-width:0;stroke-linecap:round;stroke-linejoin:miter;stroke-miterlimit:1.2;stroke-dasharray:none;stroke-opacity:1;paint-order:normal"
         id="rect5"
         width="2.1566334"
         height="44.630947"
         x="114.68555"
         y="110.78194"
         ry="0" /></g></g><g
     id="g3"
     transform="translate(-64.707946,-103.41109)"><g
       id="g2"
       transform="translate(-10.918207,15.597439)"><path
         style="fill:#ffffff;fill-opacity:1"
         d="m 116.81626,155.35737 c 0.0154,-0.0203 0.0276,-10.049 0.0272,-22.28593 l -8.5e-4,-22.24897 h -1.07366 -1.07367 v 22.25014 c 0,12.23757 0.01,22.26624 0.0221,22.28592 0.0293,0.0475 2.06284,0.0464 2.0989,-0.001 z m -6.68829,-3.55054 c 0,-1.73395 -0.0182,-3.18128 -0.0405,-3.21628 -0.0223,-0.035 -0.11362,-0.0797 -0.203,-0.0994 -0.0894,-0.0196 -0.21145,-0.0549 -0.27124,-0.0783 -0.0598,-0.0234 -0.20655,-0.0719 -0.32613,-0.1078 -0.11959,-0.0359 -0.31527,-0.10333 -0.43485,-0.14993 -0.11959,-0.0466 -0.26635,-0.10333 -0.32614,-0.12606 -0.0948,-0.0361 -0.23671,-0.0908 -0.70662,-0.27248 -0.0598,-0.0231 -0.24325,-0.10337 -0.40767,-0.17833 -0.16443,-0.075 -0.3968,-0.17882 -0.51638,-0.23079 -0.35869,-0.1559 -1.33638,-0.6421 -1.68504,-0.83798 -0.17937,-0.10077 -0.40991,-0.23013 -0.5123,-0.28746 -0.10238,-0.0573 -0.31689,-0.18787 -0.47667,-0.29008 -0.15977,-0.10221 -0.30263,-0.18583 -0.31746,-0.18583 -0.0148,0 -0.1951,-0.1223 -0.40062,-0.27178 -0.20551,-0.14948 -0.40082,-0.27178 -0.43401,-0.27178 -0.0332,0 -0.0603,-0.0188 -0.0603,-0.0418 0,-0.023 -0.21403,-0.19335 -0.47561,-0.37859 -0.26159,-0.18524 -0.53757,-0.39269 -0.61328,-0.461 -0.0757,-0.0683 -0.27139,-0.23328 -0.43485,-0.36661 -0.49411,-0.40304 -0.97663,-0.88576 -0.97663,-0.97704 0,-0.0473 0.52589,-0.6115 1.16865,-1.25374 l 1.16865,-1.16771 v -3.68308 c 0,-2.0257 -0.0183,-3.6813 -0.0408,-3.67912 -0.0224,0.002 -0.11415,0.0508 -0.20383,0.10812 -0.0897,0.0573 -0.19976,0.12104 -0.2446,0.1417 -0.12359,0.0569 -0.5069,0.30776 -0.58857,0.38515 -0.0397,0.0376 -0.12226,0.0952 -0.18346,0.12795 -0.0925,0.0495 -0.45157,0.30349 -0.66841,0.47279 -0.0299,0.0233 -0.18888,0.14338 -0.35331,0.26675 -0.16443,0.12338 -0.36324,0.2813 -0.44182,0.35094 -0.0786,0.0696 -0.26702,0.22446 -0.41877,0.34404 -0.15175,0.11959 -0.74862,0.6944 -1.32638,1.27737 -0.94861,0.95716 -1.38224,1.44515 -1.85967,2.09281 -0.0881,0.11952 -0.1753,0.22954 -0.19376,0.24449 -0.0804,0.0651 -0.86906,1.19828 -0.86906,1.2487 0,0.0307 -0.02,0.0558 -0.0443,0.0558 -0.0244,0 -0.10388,0.10212 -0.17665,0.22692 -0.0728,0.1248 -0.18718,0.31437 -0.25424,0.42126 -0.0671,0.10689 -0.13831,0.23103 -0.15833,0.27588 -0.02,0.0448 -0.0785,0.14268 -0.13,0.21742 -0.0515,0.0747 -0.23256,0.40495 -0.40239,0.7338 -0.16982,0.32886 -0.32959,0.63461 -0.35504,0.67945 -0.0254,0.0448 -0.0882,0.17938 -0.13948,0.29896 -0.0513,0.11958 -0.13892,0.31374 -0.19477,0.43147 -0.0559,0.11772 -0.10156,0.25693 -0.10156,0.30934 0,0.0524 -0.0245,0.11041 -0.0544,0.12888 -0.10277,0.0635 -0.0538,0.19084 0.20383,0.5299 0.14201,0.18689 0.27172,0.35203 0.28825,0.36698 0.0165,0.0149 0.10074,0.12502 0.18714,0.2446 0.0864,0.11958 0.18355,0.24188 0.2159,0.27178 0.0323,0.0299 0.20851,0.23781 0.3915,0.46202 0.35038,0.42934 2.00767,2.12902 2.65418,2.72208 0.32527,0.29838 0.75442,0.66337 1.05994,0.90148 0.0448,0.035 0.21607,0.17049 0.38049,0.30119 0.45282,0.35996 1.78147,1.29342 1.84101,1.29342 0.0288,0 0.0606,0.0196 0.0705,0.0435 0.0255,0.0612 0.8026,0.54443 1.36058,0.84609 0.15852,0.0857 0.31884,0.18046 0.35627,0.21058 0.0374,0.0301 0.2698,0.15775 0.51638,0.28362 0.24658,0.12586 0.49725,0.25487 0.55704,0.28667 0.11096,0.059 0.67438,0.32226 1.23808,0.57845 0.17272,0.0785 0.33325,0.14272 0.35673,0.14272 0.0235,0 0.16946,0.0612 0.32438,0.13589 0.15493,0.0747 0.31442,0.13589 0.35443,0.13589 0.04,0 0.0893,0.0166 0.10957,0.0368 0.0359,0.0359 0.66114,0.26657 0.87816,0.32398 0.0598,0.0158 0.15763,0.0475 0.21743,0.0704 0.31433,0.12054 0.50416,0.1818 0.63934,0.20632 0.0826,0.015 0.16352,0.0489 0.17987,0.0753 0.0164,0.0264 0.10777,0.0489 0.20317,0.05 0.0954,0.001 0.2346,0.0369 0.30934,0.0796 0.0747,0.0427 0.20171,0.0786 0.28216,0.0796 0.0804,0.001 0.15979,0.0238 0.17631,0.0505 0.0165,0.0267 0.12193,0.0617 0.23422,0.0777 0.33485,0.0477 0.94146,0.18522 0.97804,0.2218 0.0187,0.0187 0.0537,0.003 0.0777,-0.0347 0.024,-0.0378 0.0436,-1.48745 0.0436,-3.22141 z m 11.51226,3.23638 c 0.0519,-0.0287 0.21669,-0.0792 0.36617,-0.11229 0.14948,-0.0331 0.36962,-0.0816 0.4892,-0.10794 0.11959,-0.0263 0.31527,-0.0693 0.43485,-0.0956 0.11958,-0.0263 0.27085,-0.0765 0.33615,-0.11168 0.0653,-0.0351 0.18004,-0.0639 0.25498,-0.0639 0.0749,0 0.14971,-0.0218 0.16614,-0.0484 0.0164,-0.0266 0.10961,-0.0602 0.20704,-0.0747 0.17803,-0.0265 0.47636,-0.12274 0.65204,-0.21036 0.0519,-0.0259 0.13174,-0.0471 0.1774,-0.0471 0.0457,0 0.12548,-0.022 0.17739,-0.0488 0.0519,-0.0268 0.20446,-0.0905 0.33899,-0.14147 0.13453,-0.051 0.28707,-0.11464 0.33898,-0.14147 0.0519,-0.0268 0.1356,-0.0488 0.18597,-0.0488 0.0504,0 0.1302,-0.0316 0.17739,-0.0703 0.0472,-0.0387 0.18366,-0.10189 0.30324,-0.14052 0.11958,-0.0386 0.33973,-0.1262 0.4892,-0.19462 0.14948,-0.0684 0.41854,-0.19081 0.59792,-0.27199 0.17937,-0.0812 0.37465,-0.17366 0.43396,-0.20551 0.0593,-0.0319 0.32836,-0.17282 0.59791,-0.31327 1.00468,-0.52349 1.08861,-0.5684 1.11519,-0.59676 0.0149,-0.016 0.1189,-0.0771 0.23101,-0.13597 0.11211,-0.0588 0.20384,-0.12587 0.20384,-0.14896 0,-0.0231 0.0266,-0.042 0.0591,-0.042 0.0488,0 0.75097,-0.43124 0.94805,-0.58224 0.0307,-0.0236 0.25089,-0.17632 0.4892,-0.33945 0.2383,-0.16313 0.4656,-0.32824 0.50511,-0.3669 0.0395,-0.0387 0.0899,-0.0703 0.11205,-0.0703 0.0221,0 0.0876,-0.0435 0.1456,-0.0968 0.0579,-0.0532 0.20316,-0.16941 0.32268,-0.25819 1.22807,-0.91223 2.70538,-2.28473 3.85972,-3.58585 0.2387,-0.26906 0.44656,-0.50143 0.4619,-0.51638 0.0153,-0.0149 0.1989,-0.24382 0.40792,-0.50861 0.20901,-0.26478 0.48398,-0.61169 0.61104,-0.7709 0.23336,-0.29243 0.28855,-0.50727 0.18465,-0.71881 -0.0503,-0.1024 -0.17715,-0.39402 -0.26568,-0.61077 -0.0887,-0.2171 -0.49823,-1.03518 -0.66668,-1.33172 -0.0849,-0.14947 -0.21979,-0.39916 -0.29972,-0.55485 -0.0799,-0.15569 -0.17965,-0.31156 -0.2216,-0.34638 -0.042,-0.0348 -0.0763,-0.0886 -0.0763,-0.11946 0,-0.0309 -0.0612,-0.13634 -0.13589,-0.23432 -0.0747,-0.098 -0.13589,-0.19277 -0.13589,-0.21062 0,-0.0456 -1.09572,-1.57347 -1.37366,-1.9154 -0.12641,-0.15552 -0.37632,-0.46127 -0.55536,-0.67945 -0.40104,-0.48874 -2.11173,-2.19874 -2.49312,-2.49213 -0.31925,-0.24558 -0.77172,-0.60925 -0.93192,-0.74902 -0.15059,-0.13138 -1.17748,-0.852 -1.27736,-0.89637 -0.0943,-0.0419 -0.28639,-0.15999 -0.32614,-0.20051 -0.0149,-0.0152 -0.1189,-0.0758 -0.23101,-0.13466 -0.11211,-0.0588 -0.20383,-0.12756 -0.20383,-0.15274 0,-0.0252 -0.055,-0.038 -0.1223,-0.0284 -0.0673,0.01 -0.11619,0.0357 -0.10872,0.0581 0.007,0.0224 0.0136,1.65292 0.0136,3.62332 v 3.58254 l 1.22268,1.21436 c 0.67247,0.66791 1.22283,1.24782 1.22301,1.28871 5.2e-4,0.11815 -0.88477,0.91723 -1.60317,1.44706 -0.11958,0.0882 -0.26484,0.20389 -0.3228,0.25711 -0.0579,0.0532 -0.12347,0.0968 -0.14559,0.0968 -0.0221,0 -0.0729,0.0327 -0.11291,0.0727 -0.0682,0.0682 -0.18798,0.15204 -0.72324,0.5063 -0.11959,0.0791 -0.22558,0.1647 -0.23554,0.19013 -0.01,0.0254 -0.0443,0.0462 -0.0764,0.0462 -0.032,0 -0.13845,0.0611 -0.23644,0.13589 -0.098,0.0747 -0.1932,0.13589 -0.21158,0.13589 -0.0184,0 -0.16066,0.081 -0.31617,0.17996 -0.15552,0.099 -0.31945,0.19703 -0.36429,0.21789 -0.0448,0.0209 -0.16715,0.0905 -0.27178,0.15466 -0.25441,0.15609 -1.98831,1.02381 -2.04581,1.02381 -0.0249,0 -0.18022,0.0643 -0.34507,0.14292 -0.16486,0.0786 -0.34866,0.16256 -0.40845,0.18657 -0.3171,0.12732 -0.55379,0.2286 -0.63795,0.27299 -0.0519,0.0274 -0.12861,0.0498 -0.17044,0.0498 -0.0418,0 -0.14612,0.0365 -0.23175,0.0812 -0.0856,0.0447 -0.19705,0.0814 -0.24761,0.0815 -0.0506,1.9e-4 -0.10703,0.0248 -0.12551,0.0547 -0.0185,0.0299 -0.0892,0.0544 -0.15721,0.0544 -0.068,0 -0.14193,0.0183 -0.16431,0.0408 -0.0224,0.0224 -0.13041,0.066 -0.24007,0.0969 l -0.19939,0.0561 -0.0141,3.20526 c -0.008,1.7629 -0.002,3.23584 0.0119,3.27321 0.0312,0.0816 0.0564,0.0839 0.17961,0.0158 z M 92.13714,142.04994 c 0.1838,-0.39287 0.45609,-0.88996 0.53061,-0.9687 0.0374,-0.0395 0.068,-0.0941 0.068,-0.12124 0,-0.0272 0.0856,-0.18325 0.19025,-0.34682 0.10463,-0.16357 0.19024,-0.32304 0.19024,-0.35437 0,-0.0313 0.0207,-0.057 0.0461,-0.057 0.0254,0 0.0902,-0.0978 0.14415,-0.21742 0.0539,-0.11958 0.11879,-0.21742 0.14414,-0.21742 0.0254,0 0.0461,-0.0283 0.0461,-0.0628 0,-0.0345 0.0611,-0.14299 0.13589,-0.24097 0.0747,-0.098 0.13589,-0.19309 0.13589,-0.21134 0,-0.0182 0.0611,-0.0991 0.13589,-0.17973 0.0747,-0.0806 0.13589,-0.16688 0.13589,-0.19172 0,-0.0249 0.11619,-0.20308 0.25819,-0.39607 0.14201,-0.19299 0.31479,-0.42974 0.38396,-0.52612 0.0692,-0.0964 0.17924,-0.23672 0.2446,-0.31187 0.0654,-0.0752 0.19105,-0.23415 0.2793,-0.35331 0.0883,-0.11917 0.26517,-0.33897 0.39315,-0.48845 0.12797,-0.14948 0.30408,-0.35589 0.39136,-0.45868 l 0.15869,-0.18691 -0.1224,-0.24794 c -0.0673,-0.13637 -0.16548,-0.34579 -0.21813,-0.46537 -0.0527,-0.11958 -0.11749,-0.2599 -0.14407,-0.31181 -0.0266,-0.0519 -0.0483,-0.13174 -0.0483,-0.17739 0,-0.0457 -0.0233,-0.12549 -0.0517,-0.1774 -0.14055,-0.25648 -0.43492,-1.04451 -0.47714,-1.27729 -0.015,-0.0826 -0.0489,-0.16352 -0.0753,-0.17986 -0.0264,-0.0164 -0.0481,-0.091 -0.0481,-0.16598 0,-0.0749 -0.0287,-0.18968 -0.0639,-0.25498 -0.0351,-0.0653 -0.0852,-0.21657 -0.1112,-0.33615 -0.026,-0.11959 -0.0698,-0.30304 -0.0973,-0.40767 -0.17346,-0.66061 -0.314,-1.36329 -0.37764,-1.88809 -0.0262,-0.21631 -0.0721,-0.47314 -0.10184,-0.57073 -0.0936,-0.30681 -0.13898,-1.26292 -0.13984,-2.9496 -9.2e-4,-1.78779 0.11158,-3.248 0.29763,-3.86313 0.0278,-0.0918 0.0505,-0.22935 0.0505,-0.30566 0,-0.0763 0.0517,-0.3314 0.11477,-0.56688 0.0631,-0.23548 0.12686,-0.52002 0.14163,-0.63231 0.0148,-0.1123 0.0487,-0.2177 0.0755,-0.23423 0.0267,-0.0165 0.0485,-0.0836 0.0483,-0.14913 -2.7e-4,-0.12102 0.13721,-0.58513 0.22426,-0.75704 0.0263,-0.0519 0.0486,-0.14975 0.0495,-0.21742 9.5e-4,-0.0677 0.0376,-0.17052 0.0815,-0.22855 0.0439,-0.058 0.0798,-0.16055 0.0798,-0.22781 0,-0.0673 0.0245,-0.13741 0.0544,-0.15589 0.0299,-0.0185 0.0544,-0.0814 0.0544,-0.13983 0,-0.0584 0.0233,-0.14872 0.0517,-0.20063 0.0284,-0.0519 0.0921,-0.19222 0.14143,-0.31181 0.30057,-0.72848 0.31662,-0.7641 0.68572,-1.52155 0.30707,-0.63016 0.54664,-1.06873 0.88769,-1.62503 0.0598,-0.0975 0.16825,-0.27943 0.24102,-0.40424 0.0728,-0.1248 0.15227,-0.22691 0.17666,-0.22691 0.0244,0 0.0443,-0.0244 0.0443,-0.0543 0,-0.0537 0.79472,-1.19789 0.86841,-1.25028 0.021,-0.0149 0.10941,-0.12622 0.19641,-0.24727 0.57036,-0.7936 2.06671,-2.30422 3.164,-3.19416 0.14055,-0.11398 0.29382,-0.23828 0.3406,-0.27621 0.27116,-0.21986 0.74491,-0.56513 0.91232,-0.66489 0.10669,-0.0636 0.20314,-0.14307 0.21433,-0.17666 0.0112,-0.0336 0.0466,-0.0611 0.0786,-0.0611 0.0321,0 0.13398,-0.057 0.22649,-0.12656 0.0925,-0.0696 0.29659,-0.19802 0.45351,-0.28536 0.15692,-0.0874 0.28534,-0.17716 0.28537,-0.19958 3e-5,-0.0224 0.0257,-0.0408 0.057,-0.0408 0.0313,0 0.18421,-0.0801 0.33972,-0.17802 0.2525,-0.15896 1.81116,-0.94326 2.15804,-1.08589 0.0747,-0.0307 0.20927,-0.0866 0.29896,-0.12406 0.35545,-0.14864 0.44495,-0.18343 0.70662,-0.27465 0.14948,-0.0521 0.29502,-0.11515 0.32342,-0.14011 0.0284,-0.025 0.096,-0.0454 0.15022,-0.0454 0.0542,0 0.14105,-0.0212 0.19296,-0.0471 0.18682,-0.0932 0.69485,-0.25416 0.99126,-0.31412 0.0747,-0.0151 0.18481,-0.0497 0.2446,-0.0768 0.18806,-0.0853 0.74203,-0.20877 1.44043,-0.32113 0.19432,-0.0313 0.39,-0.0729 0.43485,-0.0925 0.0846,-0.037 0.4587,-0.09 1.25018,-0.17677 0.95616,-0.10489 1.11535,-0.13098 1.15423,-0.18918 0.0528,-0.079 0.0536,-6.270128 8.4e-4,-6.300898 -0.04,-0.0234 -0.95176,0.0374 -1.86169,0.12401 -0.65289,0.0622 -1.30456,0.15883 -1.48931,0.22091 -0.0867,0.0291 -0.22697,0.0529 -0.31177,0.0529 -0.16153,0 -0.48626,0.0662 -0.9439,0.19235 -0.14948,0.0412 -0.34516,0.0871 -0.43484,0.10193 -0.43142,0.0714 -1.09279,0.23733 -1.23586,0.310028 -0.0519,0.0264 -0.13456,0.048 -0.18366,0.048 -0.0873,0 -0.67509,0.18128 -1.2711,0.39204 -0.16443,0.0581 -0.34788,0.11807 -0.40767,0.13316 -0.0598,0.0151 -0.16986,0.0533 -0.2446,0.0849 -0.45311,0.19152 -0.52597,0.22085 -1.1143,0.44852 -0.51496,0.19928 -1.71883,0.77109 -2.3373,1.11016 -0.49295,0.27025 -0.92159,0.5111 -1.08712,0.61083 -0.0897,0.054 -0.23645,0.13903 -0.32614,0.18888 -0.0897,0.0499 -0.17529,0.10557 -0.19024,0.12382 -0.0149,0.0182 -0.11279,0.0802 -0.21742,0.13764 -0.19653,0.1079 -1.7426,1.18688 -1.86222,1.29961 -0.0693,0.0653 -0.58697,0.46576 -0.85901,0.6645 -0.0841,0.0615 -0.30735,0.24779 -0.49603,0.41406 -0.18868,0.16626 -0.42867,0.37173 -0.5333,0.45659 -0.29886,0.24239 -1.62492,1.58125 -2.04159,2.0613 -0.20749,0.23905 -0.42255,0.48365 -0.47791,0.54356 -0.0554,0.0599 -0.16396,0.19455 -0.24131,0.29918 -0.0773,0.10464 -0.21714,0.27586 -0.31064,0.38049 -0.0935,0.10464 -0.20505,0.24264 -0.24789,0.30667 -0.0429,0.064 -0.29193,0.41056 -0.55352,0.77005 -0.26159,0.3595 -0.47562,0.66893 -0.47562,0.68762 0,0.0187 -0.0253,0.0635 -0.0562,0.0996 -0.0938,0.10946 -0.59602,0.90543 -0.59602,0.94459 0,0.0201 -0.0343,0.0752 -0.0761,0.12236 -0.0419,0.0472 -0.13705,0.19589 -0.2115,0.33042 -0.0744,0.13453 -0.21111,0.37913 -0.30368,0.54356 -0.0926,0.16442 -0.32993,0.62917 -0.52748,1.03276 -0.33153,0.67732 -0.39025,0.8038 -0.47944,1.03276 -0.0175,0.0448 -0.0535,0.11823 -0.0802,0.16307 -0.0266,0.0448 -0.0791,0.15491 -0.11668,0.2446 -0.17053,0.40729 -0.20881,0.49941 -0.27107,0.65227 -0.0365,0.0897 -0.088,0.20554 -0.11444,0.25746 -0.0264,0.0519 -0.0488,0.13752 -0.0497,0.19024 -9.5e-4,0.0527 -0.0376,0.14334 -0.0815,0.20137 -0.0439,0.058 -0.0798,0.16055 -0.0798,0.22781 0,0.0673 -0.0245,0.13741 -0.0544,0.15588 -0.0299,0.0185 -0.0544,0.0783 -0.0544,0.13289 0,0.0546 -0.0365,0.16935 -0.0812,0.25498 -0.0447,0.0856 -0.0814,0.20929 -0.0815,0.27479 -1.8e-4,0.0655 -0.0248,0.13421 -0.0547,0.15268 -0.0299,0.0185 -0.0544,0.0936 -0.0544,0.16702 0,0.0734 -0.021,0.17589 -0.0467,0.2278 -0.0834,0.16867 -0.22508,0.64964 -0.22508,0.76433 0,0.0615 -0.0245,0.12692 -0.0544,0.1454 -0.0299,0.0185 -0.0544,0.10631 -0.0544,0.1952 0,0.0889 -0.0367,0.24941 -0.0815,0.35674 -0.0448,0.10732 -0.0815,0.27632 -0.0815,0.37554 0,0.0992 -0.0245,0.19551 -0.0544,0.21399 -0.0299,0.0185 -0.0544,0.1284 -0.0544,0.24427 0,0.11587 -0.0269,0.27954 -0.0598,0.3637 -0.0834,0.21326 -0.19854,0.98249 -0.31515,2.10548 -0.0308,0.29657 -0.0851,0.67571 -0.12069,0.84252 -0.0906,0.42476 -0.0898,4.97007 9.8e-4,5.38558 0.0359,0.16443 0.0893,0.54356 0.11864,0.84252 0.0837,0.85315 0.23658,1.88295 0.30256,2.03834 0.0325,0.0767 0.0825,0.32152 0.15522,0.76099 0.0173,0.10463 0.0657,0.31254 0.10747,0.46202 0.0418,0.14948 0.10395,0.38185 0.13815,0.51638 0.11875,0.46719 0.23001,0.84304 0.27733,0.9369 0.0262,0.0519 0.0476,0.14397 0.0476,0.20458 0,0.0606 0.0212,0.15266 0.0471,0.20457 0.0765,0.15336 0.18076,0.46369 0.21002,0.62502 0.015,0.0826 0.0489,0.16352 0.0753,0.17986 0.0264,0.0163 0.0481,0.088 0.0481,0.1592 0,0.0712 0.0215,0.14277 0.0478,0.15903 0.0263,0.0163 0.0884,0.15835 0.13798,0.31576 0.0496,0.1574 0.11202,0.33511 0.13874,0.3949 0.0559,0.12499 0.20475,0.48042 0.28463,0.67945 0.03,0.0747 0.0853,0.20927 0.12279,0.29896 0.0868,0.20743 0.45985,1.00663 0.52009,1.1143 0.0251,0.0448 0.17311,0.32613 0.32892,0.62509 0.15582,0.29896 0.34081,0.6348 0.4111,0.74631 0.0703,0.11152 0.1278,0.2379 0.1278,0.28084 0,0.043 0.0183,0.0862 0.0408,0.0962 0.0553,0.0246 0.33972,0.46555 0.33972,0.52668 0,0.0269 0.0367,0.0793 0.0815,0.11654 0.0448,0.0372 0.0815,0.11538 0.0815,0.17371 0,0.12424 0.15725,0.11652 0.21674,-0.0106 z m 47.6416,-0.3085 c 0.0886,-0.17413 0.17608,-0.32882 0.1945,-0.34377 0.0184,-0.0149 0.0704,-0.10056 0.11557,-0.19024 0.0451,-0.0897 0.1511,-0.28537 0.23545,-0.43485 0.0844,-0.14948 0.17772,-0.3207 0.20748,-0.38049 0.0297,-0.0598 0.0734,-0.1454 0.097,-0.19025 0.30233,-0.57443 0.86425,-1.7645 0.86425,-1.83036 0,-0.0238 0.0643,-0.17824 0.14292,-0.34309 0.0786,-0.16486 0.16129,-0.34866 0.18373,-0.40845 0.14774,-0.39347 0.23437,-0.61013 0.27684,-0.6923 0.0268,-0.0519 0.0488,-0.13897 0.0488,-0.19345 0,-0.0545 0.0359,-0.14654 0.0798,-0.20457 0.0439,-0.058 0.0806,-0.14865 0.0815,-0.20137 9.5e-4,-0.0527 0.0229,-0.13834 0.0488,-0.19025 0.0932,-0.18682 0.25416,-0.69485 0.31412,-0.99126 0.0151,-0.0747 0.0463,-0.18481 0.0693,-0.2446 0.11953,-0.31102 0.22181,-0.68263 0.22181,-0.80584 0,-0.0764 0.0245,-0.15409 0.0544,-0.17257 0.0299,-0.0185 0.0544,-0.10393 0.0544,-0.18991 0,-0.086 0.028,-0.22518 0.0622,-0.30934 0.0617,-0.15171 0.12214,-0.4447 0.19972,-0.96836 0.0221,-0.14947 0.0594,-0.30244 0.0827,-0.33992 0.0561,-0.0901 0.20129,-1.13469 0.304,-2.18763 0.0335,-0.3438 0.0848,-0.758 0.11381,-0.92044 0.0694,-0.38797 0.0683,-3.79579 -0.001,-4.30738 -0.0298,-0.21891 -0.0812,-0.66708 -0.11417,-0.99593 -0.11758,-1.17284 -0.24484,-2.12247 -0.2954,-2.20428 -0.0196,-0.0317 -0.0586,-0.19689 -0.0867,-0.36711 -0.0281,-0.17021 -0.0722,-0.43476 -0.098,-0.58789 -0.0258,-0.15313 -0.0739,-0.32886 -0.10687,-0.39051 -0.033,-0.0617 -0.06,-0.18563 -0.06,-0.27552 0,-0.0899 -0.0245,-0.17855 -0.0544,-0.19703 -0.0299,-0.0185 -0.0544,-0.11631 -0.0544,-0.21742 0,-0.10111 -0.023,-0.19807 -0.0512,-0.21548 -0.0282,-0.0174 -0.0677,-0.14146 -0.0878,-0.27566 -0.0201,-0.1342 -0.0582,-0.25737 -0.0847,-0.27372 -0.0264,-0.0163 -0.0481,-0.0898 -0.0481,-0.16314 0,-0.0734 -0.0212,-0.17589 -0.0471,-0.2278 -0.0765,-0.15337 -0.18076,-0.46369 -0.21002,-0.62502 -0.015,-0.0826 -0.0489,-0.16352 -0.0753,-0.17987 -0.0264,-0.0163 -0.0481,-0.0847 -0.0481,-0.15201 0,-0.0673 -0.0359,-0.16977 -0.0798,-0.2278 -0.0439,-0.058 -0.0806,-0.14865 -0.0815,-0.20138 -9.5e-4,-0.0527 -0.0233,-0.13833 -0.0497,-0.19024 -0.0264,-0.0519 -0.0776,-0.16777 -0.11374,-0.25746 -0.0361,-0.0897 -0.10015,-0.23231 -0.14223,-0.31695 -0.0421,-0.0846 -0.0765,-0.20082 -0.0765,-0.25819 0,-0.0574 -0.0245,-0.1043 -0.0543,-0.1043 -0.0299,0 -0.0544,-0.039 -0.0544,-0.0867 0,-0.0477 -0.0337,-0.15166 -0.075,-0.23101 -0.0412,-0.0794 -0.16592,-0.33996 -0.27708,-0.57913 -0.11117,-0.23916 -0.22352,-0.47154 -0.24967,-0.51638 -0.0262,-0.0448 -0.087,-0.16714 -0.13515,-0.27178 -0.15973,-0.34688 -0.36767,-0.72724 -0.59075,-1.08063 -0.077,-0.12196 -0.13999,-0.23516 -0.13999,-0.25156 0,-0.0164 -0.14676,-0.26276 -0.32613,-0.54748 -0.17938,-0.28472 -0.32614,-0.529 -0.32614,-0.54284 0,-0.0138 -0.1223,-0.19332 -0.27178,-0.39883 -0.14948,-0.20552 -0.27178,-0.39879 -0.27178,-0.42949 0,-0.0307 -0.0199,-0.064 -0.0442,-0.0739 -0.0243,-0.01 -0.15072,-0.16329 -0.28093,-0.34073 -0.13022,-0.17744 -0.26816,-0.36089 -0.30654,-0.40767 -0.0384,-0.0468 -0.23605,-0.29701 -0.43928,-0.55607 -1.1062,-1.41009 -2.63652,-2.96347 -3.98787,-4.04797 -0.11686,-0.0938 -0.31671,-0.25734 -0.44411,-0.36347 -0.42777,-0.35633 -1.98486,-1.48701 -2.26159,-1.64223 -0.15496,-0.0869 -0.32067,-0.19001 -0.41311,-0.25698 -0.14503,-0.10508 -0.47222,-0.31178 -0.49352,-0.31178 -0.013,0 -0.1526,-0.0804 -0.31014,-0.1786 -0.15753,-0.0982 -0.38426,-0.22665 -0.50384,-0.28537 -0.11959,-0.0587 -0.22966,-0.12042 -0.24461,-0.1371 -0.0277,-0.0309 -1.66572,-0.83293 -1.88886,-0.92487 -0.18865,-0.0777 -0.34713,-0.14349 -0.58433,-0.2425 -0.11958,-0.0499 -0.27857,-0.11498 -0.35331,-0.14459 -0.0747,-0.0296 -0.20514,-0.0883 -0.28978,-0.13035 -0.0846,-0.0421 -0.19938,-0.0765 -0.25498,-0.0765 -0.0556,0 -0.11622,-0.0245 -0.13469,-0.0544 -0.0185,-0.0299 -0.0872,-0.0551 -0.15269,-0.0561 -0.0655,-9.6e-4 -0.16657,-0.0376 -0.2246,-0.0815 -0.058,-0.0439 -0.16055,-0.0798 -0.22781,-0.0798 -0.0673,0 -0.13741,-0.0245 -0.15589,-0.0544 -0.0185,-0.0299 -0.10063,-0.0544 -0.18258,-0.0544 -0.0819,0 -0.17222,-0.0209 -0.20062,-0.0465 -0.0691,-0.0622 -0.58921,-0.22529 -0.71866,-0.22529 -0.0567,0 -0.12052,-0.0175 -0.1419,-0.0389 -0.0634,-0.0634 -0.62716,-0.212668 -1.25859,-0.333298 -0.12068,-0.023 -0.25048,-0.0611 -0.28844,-0.0846 -0.065,-0.0402 -0.28066,-0.0821 -0.98694,-0.19206 -0.16443,-0.0256 -0.33565,-0.0607 -0.38049,-0.0779 -0.3145,-0.12111 -3.23216,-0.39063 -3.32975,-0.30758 -0.0227,0.0193 -0.0349,1.451918 -0.0272,3.183628 l 0.014,3.14856 0.21742,0.0423 c 0.20987,0.0408 0.83846,0.11563 1.63068,0.19417 0.20927,0.0208 0.40878,0.056 0.44334,0.0783 0.0346,0.0223 0.21803,0.066 0.40767,0.097 0.54447,0.0892 0.80992,0.14421 1.16016,0.2405 0.17937,0.0493 0.38728,0.10233 0.46202,0.1178 0.0747,0.0155 0.18481,0.0489 0.24461,0.0743 0.0598,0.0254 0.16986,0.0578 0.2446,0.0719 0.15256,0.0289 0.46778,0.13582 0.61076,0.20713 0.0519,0.0259 0.13875,0.0471 0.19297,0.0471 0.0542,0 0.12181,0.0204 0.15021,0.0454 0.0284,0.025 0.17394,0.088 0.32342,0.14011 0.14948,0.0521 0.3207,0.11565 0.38049,0.1412 0.1627,0.0695 0.52885,0.22204 0.65227,0.2717 0.1948,0.0784 1.57055,0.7561 1.79375,0.88366 0.82774,0.47304 1.09253,0.63088 1.30454,0.77759 0.0897,0.0621 0.19976,0.12943 0.2446,0.14969 0.12269,0.0554 1.60216,1.13426 1.68504,1.22873 0.0149,0.017 0.14947,0.12748 0.29895,0.24543 0.22702,0.17913 0.79447,0.70559 1.298,1.20422 0.49348,0.48868 1.21171,1.27482 1.52851,1.67304 0.20927,0.26305 0.45832,0.57426 0.55345,0.69158 0.16143,0.19907 0.62862,0.86688 0.75109,1.0736 0.0299,0.0505 0.10328,0.16473 0.16307,0.25392 0.17319,0.25835 0.23919,0.36736 0.33654,0.55579 0.0502,0.0972 0.11119,0.17665 0.13555,0.17665 0.0244,0 0.0443,0.0459 0.0443,0.10206 0,0.0561 0.0345,0.13071 0.0767,0.16574 0.0422,0.035 0.28907,0.49664 0.5486,1.02582 0.25953,0.52919 0.49406,1.00463 0.52119,1.05654 0.0271,0.0519 0.0493,0.1193 0.0493,0.14975 0,0.0304 0.0611,0.18211 0.13589,0.33704 0.0747,0.15493 0.13589,0.31413 0.13589,0.35379 0,0.0397 0.0215,0.11457 0.0477,0.16648 0.12622,0.24964 0.22406,0.51576 0.22406,0.6094 0,0.057 0.0245,0.11878 0.0544,0.13726 0.0299,0.0185 0.0552,0.0994 0.0563,0.17986 0.001,0.0804 0.0369,0.20742 0.0796,0.28216 0.0427,0.0747 0.0785,0.20171 0.0796,0.28216 0.001,0.0804 0.0238,0.15979 0.0505,0.17632 0.0267,0.0165 0.0618,0.12192 0.0779,0.23422 0.0161,0.1123 0.0699,0.36317 0.11951,0.55749 0.0953,0.3731 0.15003,0.66249 0.2393,1.26599 0.03,0.20302 0.0707,0.39517 0.0904,0.427 0.12497,0.20222 0.23528,3.01462 0.17451,4.44923 -0.0448,1.05782 -0.11528,1.85301 -0.17239,1.94542 -0.037,0.0598 -0.0961,0.4247 -0.17808,1.09851 -0.0164,0.13453 -0.0518,0.26784 -0.0788,0.29624 -0.027,0.0284 -0.0491,0.10509 -0.0491,0.17041 0,0.0653 -0.0386,0.25 -0.0858,0.41039 -0.0472,0.16039 -0.11118,0.38945 -0.14226,0.50903 -0.0943,0.3628 -0.2172,0.75557 -0.26774,0.85537 -0.0263,0.0519 -0.0478,0.13058 -0.0478,0.17482 0,0.0739 -0.10822,0.35705 -0.22406,0.58617 -0.0262,0.0519 -0.0477,0.13173 -0.0477,0.17739 0,0.0456 -0.0233,0.12548 -0.0517,0.17739 -0.0471,0.086 -0.1406,0.30362 -0.28568,0.66513 -0.0849,0.21159 -0.18243,0.43594 -0.33078,0.76098 l -0.13643,0.29896 0.17505,0.19024 c 0.0963,0.10464 0.2831,0.32478 0.41515,0.48921 0.13205,0.16442 0.25437,0.31118 0.27182,0.32613 0.0174,0.0149 0.13343,0.16605 0.25773,0.33577 0.12431,0.16973 0.252,0.32466 0.28377,0.3443 0.0318,0.0196 0.12404,0.13477 0.20504,0.25586 0.24917,0.37248 0.30696,0.45693 0.40499,0.59175 0.0521,0.0716 0.19882,0.28917 0.32614,0.48349 0.12732,0.19432 0.24983,0.36147 0.27226,0.37143 0.0224,0.01 0.0408,0.0356 0.0408,0.057 0,0.0214 0.20791,0.38691 0.46203,0.81226 0.25411,0.42535 0.46202,0.78259 0.46202,0.79387 0,0.0113 0.0819,0.1654 0.18201,0.3425 0.1001,0.1771 0.19854,0.3879 0.21876,0.46844 0.0532,0.21182 0.18689,0.11703 0.38535,-0.27316 z"
         id="path2" /><rect
         style="fill:#3382b1;fill-opacity:1;stroke:none;stroke-width:0;stroke-linecap:round;stroke-linejoin:miter;stroke-miterlimit:1.2;stroke-dasharray:none;stroke-opacity:1;paint-order:normal"
         id="rect2"
         width="2.1566334"
         height="44.630947"
         x="114.68555"
         y="110.78194"
         ry="0" /></g></g></svg>
